<svg width="280" height="168" viewBox="0 0 280 168" fill="none" xmlns="http://www.w3.org/2000/svg">
<g clip-path="url(#clip0_3079_29534)">
<rect x="177.347" y="16.1736" width="24.6476" height="59.3026" fill="white"/>
<path d="M187.61 48.9942H184.69V61.4149H188.444C189.569 61.4149 190.411 61.1042 190.961 60.5079C191.51 59.9117 191.794 58.8703 191.794 57.4007V53.8735C191.794 52.0343 191.476 50.7662 190.814 50.0608C190.153 49.3553 189.079 48.9858 187.61 48.9858V48.9942Z" fill="url(#paint0_radial_3079_29534)"/>
<path d="M190.153 42.217C190.789 41.5703 191.107 40.4702 191.107 38.9418V36.6827C191.107 33.9197 190.007 32.534 187.816 32.5005H184.672V43.1996H187.241C188.538 43.1996 189.526 42.8636 190.162 42.2086L190.153 42.217Z" fill="url(#paint1_radial_3079_29534)"/>
<path d="M187.808 0C177.044 0 168.308 8.53242 168.308 19.0636V73.9364C168.308 84.4592 177.036 93 187.808 93C198.572 93 207.308 84.4676 207.308 73.9364V19.0636C207.308 8.54082 198.58 0 187.808 0ZM198.271 57.6022C198.271 60.7347 197.429 63.1113 195.762 64.749C194.714 65.7735 193.366 66.4706 191.716 66.8569V68.2929C191.716 69.3175 190.857 70.1573 189.809 70.1573C188.761 70.1573 187.894 69.3175 187.894 68.2929V67.2012H184.672V68.2929C184.672 69.3175 183.813 70.1573 182.765 70.1573C181.717 70.1573 180.858 69.3175 180.858 68.2929V67.2012H180.266C178.883 67.2012 178.187 66.521 178.187 65.1689V28.7465C178.187 27.3944 178.883 26.7142 180.266 26.7142H180.858V24.6987C180.858 23.6741 181.717 22.8343 182.765 22.8343C183.813 22.8343 184.672 23.6741 184.672 24.6987V26.7142H187.894V24.6987C187.894 23.6741 188.753 22.8343 189.809 22.8343C190.866 22.8343 191.716 23.6741 191.716 24.6987V26.8822C191.716 26.9661 191.699 27.0417 191.691 27.1173C193.211 27.4868 194.431 28.1083 195.333 28.9985C196.862 30.5269 197.644 32.87 197.644 36.0276V37.6401C197.644 41.7887 196.226 44.4425 193.426 45.5762V45.6854C196.664 46.7603 198.279 49.5821 198.279 54.1254V57.6022H198.271Z" fill="url(#paint2_radial_3079_29534)"/>
</g>
<path d="M6.67991 82.0001C4.54591 82.0001 3.28491 80.7391 3.28491 78.6051V17.4951C3.28491 15.3611 4.54591 14.1001 6.67991 14.1001H18.9989C29.6689 14.1001 34.9069 20.0171 34.9069 30.8811V37.5741C34.9069 48.4381 29.6689 54.3551 18.9989 54.3551H13.9549V78.6051C13.9549 80.7391 12.6939 82.0001 10.5599 82.0001H6.67991ZM13.9549 44.6551H18.9989C22.3939 44.6551 24.2369 43.1031 24.2369 38.2531V30.2021C24.2369 25.3521 22.3939 23.8001 18.9989 23.8001H13.9549V44.6551Z" fill="black"/>
<path d="M44.0969 82.0001C41.9629 82.0001 40.7019 80.7391 40.7019 78.6051V17.4951C40.7019 15.3611 41.9629 14.1001 44.0969 14.1001H47.9769C50.1109 14.1001 51.3719 15.3611 51.3719 17.4951V72.3001H65.5339C67.6679 72.3001 68.9289 73.5611 68.9289 75.6951V78.6051C68.9289 80.7391 67.6679 82.0001 65.5339 82.0001H44.0969Z" fill="black"/>
<path d="M75.1036 82.0001C73.0666 82.0001 71.9026 80.9331 71.9026 79.0901C71.9026 78.8961 71.9026 78.7991 71.9996 78.2171L82.1846 17.2041C82.4756 15.1671 83.7366 14.1001 85.7736 14.1001H94.0186C96.0556 14.1001 97.3166 15.1671 97.6076 17.2041L107.793 78.2171C107.89 78.7991 107.89 78.8961 107.89 79.0901C107.89 80.9331 106.726 82.0001 104.689 82.0001H100.906C98.8686 82.0001 97.5106 81.0301 97.2196 78.8961L95.7646 68.5171V68.7111H83.2516L81.7966 78.8961C81.5056 81.0301 80.1476 82.0001 78.1106 82.0001H75.1036ZM84.5126 59.4961H94.5036L89.5566 25.9341H89.3626L84.5126 59.4961Z" fill="black"/>
<path d="M116.752 82.0001C114.618 82.0001 113.357 80.7391 113.357 78.6051V17.4951C113.357 15.3611 114.618 14.1001 116.752 14.1001H123.736C125.773 14.1001 127.034 14.9731 127.519 17.0101L137.122 54.7431H137.316V17.4951C137.316 15.3611 138.577 14.1001 140.711 14.1001H143.427C145.561 14.1001 146.822 15.3611 146.822 17.4951V78.6051C146.822 80.7391 145.561 82.0001 143.427 82.0001H138.868C136.831 82.0001 135.57 81.1271 135.085 79.0901L123.057 32.4331H122.863V78.6051C122.863 80.7391 121.602 82.0001 119.468 82.0001H116.752Z" fill="black"/>
<path d="M3.201 167C1.164 167 0 165.933 0 164.09C0 163.896 0 163.799 0.097 163.217L10.282 102.204C10.573 100.167 11.834 99.0999 13.871 99.0999H22.116C24.153 99.0999 25.414 100.167 25.705 102.204L35.89 163.217C35.987 163.799 35.987 163.896 35.987 164.09C35.987 165.933 34.823 167 32.786 167H29.003C26.966 167 25.608 166.03 25.317 163.896L23.862 153.517V153.711H11.349L9.894 163.896C9.603 166.03 8.245 167 6.208 167H3.201ZM12.61 144.496H22.601L17.654 110.934H17.46L12.61 144.496Z" fill="black"/>
<path d="M56.3002 167.97C46.0182 167.97 40.5862 161.762 40.5862 151.286V114.814C40.5862 104.338 46.0182 98.1299 56.3002 98.1299C66.5822 98.1299 72.0142 104.338 72.0142 114.814V118.597C72.0142 120.731 70.7532 121.992 68.6192 121.992H65.3212C63.1872 121.992 61.9262 120.731 61.9262 118.597V114.135C61.9262 109.673 59.7922 107.83 56.5912 107.83C53.3902 107.83 51.2562 109.673 51.2562 114.135V152.062C51.2562 156.524 53.3902 158.27 56.5912 158.27C59.7922 158.27 61.9262 156.524 61.9262 152.062V145.078C61.9262 142.944 63.1872 141.683 65.3212 141.683H68.6192C70.7532 141.683 72.0142 142.944 72.0142 145.078V151.286C72.0142 161.762 66.5822 167.97 56.3002 167.97Z" fill="black"/>
<path d="M79.077 167C77.04 167 75.876 165.933 75.876 164.09C75.876 163.896 75.876 163.799 75.973 163.217L86.158 102.204C86.449 100.167 87.71 99.0999 89.747 99.0999H97.992C100.029 99.0999 101.29 100.167 101.581 102.204L111.766 163.217C111.863 163.799 111.863 163.896 111.863 164.09C111.863 165.933 110.699 167 108.662 167H104.879C102.842 167 101.484 166.03 101.193 163.896L99.738 153.517V153.711H87.225L85.77 163.896C85.479 166.03 84.121 167 82.084 167H79.077ZM88.486 144.496H98.477L93.53 110.934H93.336L88.486 144.496Z" fill="black"/>
<path d="M120.726 167C118.592 167 117.331 165.739 117.331 163.605V102.495C117.331 100.361 118.592 99.0999 120.726 99.0999H133.627C144.297 99.0999 149.535 105.017 149.535 115.881V150.219C149.535 161.083 144.297 167 133.627 167H120.726ZM128.001 157.3H133.433C136.828 157.3 138.865 155.554 138.865 150.704V115.396C138.865 110.546 136.828 108.8 133.433 108.8H128.001V157.3Z" fill="black"/>
<path d="M160.132 167C157.998 167 156.737 165.739 156.737 163.605V102.495C156.737 100.361 157.998 99.0999 160.132 99.0999H182.442C184.576 99.0999 185.837 100.361 185.837 102.495V105.405C185.837 107.539 184.576 108.8 182.442 108.8H167.407V126.745H178.659C180.793 126.745 182.054 128.006 182.054 130.14V133.05C182.054 135.184 180.793 136.445 178.659 136.445H167.407V157.3H182.442C184.576 157.3 185.837 158.561 185.837 160.695V163.605C185.837 165.739 184.576 167 182.442 167H160.132Z" fill="black"/>
<path d="M195.37 167C193.236 167 191.975 165.739 191.975 163.605V102.495C191.975 100.361 193.236 99.0999 195.37 99.0999H204.003C206.04 99.0999 207.398 100.07 207.689 102.204L213.994 147.697H214.188L220.493 102.204C220.784 100.07 222.142 99.0999 224.179 99.0999H232.812C234.946 99.0999 236.207 100.361 236.207 102.495V163.605C236.207 165.739 234.946 167 232.812 167H229.514C227.38 167 226.119 165.739 226.119 163.605V115.59H225.925L218.65 163.896C218.359 166.03 217.001 167 214.964 167H212.442C210.405 167 209.047 166.03 208.756 163.896L201.481 115.59H201.287V163.605C201.287 165.739 200.026 167 197.892 167H195.37Z" fill="black"/>
<path d="M257.361 167C255.227 167 253.966 165.739 253.966 163.605V138.094L242.132 102.98C241.938 102.398 241.938 102.01 241.938 101.622C241.938 99.9729 243.005 99.0999 244.945 99.0999H249.213C251.25 99.0999 252.511 99.8759 253.093 101.913L259.689 124.029H259.883L266.479 101.913C267.061 99.8759 268.322 99.0999 270.359 99.0999H273.657C275.597 99.0999 276.664 99.9729 276.664 101.622C276.664 102.01 276.664 102.398 276.47 102.98L264.636 138.094V163.605C264.636 165.739 263.375 167 261.241 167H257.361Z" fill="black"/>
<defs>
<radialGradient id="paint0_radial_3079_29534" cx="0" cy="0" r="1" gradientTransform="matrix(4.32901 58.3566 -24.4721 1.75876 179.273 12.2271)" gradientUnits="userSpaceOnUse">
<stop stop-color="#FF9900"/>
<stop offset="1" stop-color="#FF5C00"/>
</radialGradient>
<radialGradient id="paint1_radial_3079_29534" cx="0" cy="0" r="1" gradientTransform="matrix(4.32901 58.3566 -24.4721 1.75876 179.273 12.2271)" gradientUnits="userSpaceOnUse">
<stop stop-color="#FF9900"/>
<stop offset="1" stop-color="#FF5C00"/>
</radialGradient>
<radialGradient id="paint2_radial_3079_29534" cx="0" cy="0" r="1" gradientTransform="matrix(4.32901 58.3566 -24.4721 1.75876 179.273 12.2271)" gradientUnits="userSpaceOnUse">
<stop stop-color="#FF9900"/>
<stop offset="1" stop-color="#FF5C00"/>
</radialGradient>
<clipPath id="clip0_3079_29534">
<rect width="39" height="93" fill="white" transform="translate(168.308)"/>
</clipPath>
</defs>
</svg>
