<svg width="505" height="93" viewBox="0 0 505 93" fill="none" xmlns="http://www.w3.org/2000/svg">
<g clip-path="url(#clip0_3079_29420)">
<rect x="178.039" y="16.1738" width="24.6476" height="59.3026" fill="white"/>
<path d="M188.302 48.9942H185.382V61.4149H189.136C190.261 61.4149 191.103 61.1042 191.653 60.5079C192.202 59.9117 192.486 58.8703 192.486 57.4007V53.8735C192.486 52.0343 192.168 50.7662 191.507 50.0608C190.845 49.3553 189.771 48.9858 188.302 48.9858V48.9942Z" fill="url(#paint0_radial_3079_29420)"/>
<path d="M190.845 42.217C191.481 41.5703 191.799 40.4702 191.799 38.9418V36.6827C191.799 33.9197 190.699 32.534 188.509 32.5005H185.365V43.1996H187.933C189.23 43.1996 190.218 42.8636 190.854 42.2086L190.845 42.217Z" fill="url(#paint1_radial_3079_29420)"/>
<path d="M188.5 0C177.736 0 169 8.53242 169 19.0636V73.9364C169 84.4592 177.728 93 188.5 93C199.264 93 208 84.4676 208 73.9364V19.0636C208 8.54082 199.272 0 188.5 0ZM198.963 57.6022C198.963 60.7347 198.121 63.1113 196.455 64.749C195.407 65.7735 194.058 66.4706 192.409 66.8569V68.2929C192.409 69.3175 191.55 70.1573 190.502 70.1573C189.454 70.1573 188.586 69.3175 188.586 68.2929V67.2012H185.365V68.2929C185.365 69.3175 184.506 70.1573 183.457 70.1573C182.409 70.1573 181.55 69.3175 181.55 68.2929V67.2012H180.958C179.575 67.2012 178.879 66.521 178.879 65.1689V28.7465C178.879 27.3944 179.575 26.7142 180.958 26.7142H181.55V24.6987C181.55 23.6741 182.409 22.8343 183.457 22.8343C184.506 22.8343 185.365 23.6741 185.365 24.6987V26.7142H188.586V24.6987C188.586 23.6741 189.445 22.8343 190.502 22.8343C191.558 22.8343 192.409 23.6741 192.409 24.6987V26.8822C192.409 26.9661 192.391 27.0417 192.383 27.1173C193.903 27.4868 195.123 28.1083 196.025 28.9985C197.554 30.5269 198.336 32.87 198.336 36.0276V37.6401C198.336 41.7887 196.918 44.4425 194.118 45.5762V45.6854C197.357 46.7603 198.972 49.5821 198.972 54.1254V57.6022H198.963Z" fill="url(#paint2_radial_3079_29420)"/>
</g>
<path d="M7.37205 81.9999C5.23805 81.9999 3.97705 80.7389 3.97705 78.6049V17.4949C3.97705 15.3609 5.23805 14.0999 7.37205 14.0999H19.6911C30.3611 14.0999 35.5991 20.0169 35.5991 30.8809V37.5739C35.5991 48.4379 30.3611 54.3549 19.6911 54.3549H14.6471V78.6049C14.6471 80.7389 13.3861 81.9999 11.2521 81.9999H7.37205ZM14.6471 44.6549H19.6911C23.0861 44.6549 24.9291 43.1029 24.9291 38.2529V30.2019C24.9291 25.3519 23.0861 23.7999 19.6911 23.7999H14.6471V44.6549Z" fill="black"/>
<path d="M44.789 81.9999C42.655 81.9999 41.394 80.7389 41.394 78.6049V17.4949C41.394 15.3609 42.655 14.0999 44.789 14.0999H48.669C50.803 14.0999 52.064 15.3609 52.064 17.4949V72.2999H66.226C68.36 72.2999 69.621 73.5609 69.621 75.6949V78.6049C69.621 80.7389 68.36 81.9999 66.226 81.9999H44.789Z" fill="black"/>
<path d="M75.7957 81.9999C73.7587 81.9999 72.5947 80.9329 72.5947 79.0899C72.5947 78.8959 72.5947 78.7989 72.6917 78.2169L82.8767 17.2039C83.1677 15.1669 84.4287 14.0999 86.4657 14.0999H94.7107C96.7477 14.0999 98.0087 15.1669 98.2997 17.2039L108.485 78.2169C108.582 78.7989 108.582 78.8959 108.582 79.0899C108.582 80.9329 107.418 81.9999 105.381 81.9999H101.598C99.5607 81.9999 98.2027 81.0299 97.9117 78.8959L96.4567 68.5169V68.7109H83.9437L82.4887 78.8959C82.1977 81.0299 80.8397 81.9999 78.8027 81.9999H75.7957ZM85.2047 59.4959H95.1957L90.2487 25.9339H90.0547L85.2047 59.4959Z" fill="black"/>
<path d="M117.444 81.9999C115.31 81.9999 114.049 80.7389 114.049 78.6049V17.4949C114.049 15.3609 115.31 14.0999 117.444 14.0999H124.428C126.465 14.0999 127.726 14.9729 128.211 17.0099L137.814 54.7429H138.008V17.4949C138.008 15.3609 139.269 14.0999 141.403 14.0999H144.119C146.253 14.0999 147.514 15.3609 147.514 17.4949V78.6049C147.514 80.7389 146.253 81.9999 144.119 81.9999H139.56C137.523 81.9999 136.262 81.1269 135.777 79.0899L123.749 32.4329H123.555V78.6049C123.555 80.7389 122.294 81.9999 120.16 81.9999H117.444Z" fill="black"/>
<path d="M229.656 81.9999C227.619 81.9999 226.455 80.9329 226.455 79.0899C226.455 78.8959 226.455 78.7989 226.552 78.2169L236.737 17.2039C237.028 15.1669 238.289 14.0999 240.326 14.0999H248.571C250.608 14.0999 251.869 15.1669 252.16 17.2039L262.345 78.2169C262.442 78.7989 262.442 78.8959 262.442 79.0899C262.442 80.9329 261.278 81.9999 259.241 81.9999H255.458C253.421 81.9999 252.063 81.0299 251.772 78.8959L250.317 68.5169V68.7109H237.804L236.349 78.8959C236.058 81.0299 234.7 81.9999 232.663 81.9999H229.656ZM239.065 59.4959H249.056L244.109 25.9339H243.915L239.065 59.4959Z" fill="black"/>
<path d="M282.755 82.9699C272.473 82.9699 267.041 76.7619 267.041 66.2859V29.8139C267.041 19.3379 272.473 13.1299 282.755 13.1299C293.037 13.1299 298.469 19.3379 298.469 29.8139V33.5969C298.469 35.7309 297.208 36.9919 295.074 36.9919H291.776C289.642 36.9919 288.381 35.7309 288.381 33.5969V29.1349C288.381 24.6729 286.247 22.8299 283.046 22.8299C279.845 22.8299 277.711 24.6729 277.711 29.1349V67.0619C277.711 71.5239 279.845 73.2699 283.046 73.2699C286.247 73.2699 288.381 71.5239 288.381 67.0619V60.0779C288.381 57.9439 289.642 56.6829 291.776 56.6829H295.074C297.208 56.6829 298.469 57.9439 298.469 60.0779V66.2859C298.469 76.7619 293.037 82.9699 282.755 82.9699Z" fill="black"/>
<path d="M305.532 81.9999C303.495 81.9999 302.331 80.9329 302.331 79.0899C302.331 78.8959 302.331 78.7989 302.428 78.2169L312.613 17.2039C312.904 15.1669 314.165 14.0999 316.202 14.0999H324.447C326.484 14.0999 327.745 15.1669 328.036 17.2039L338.221 78.2169C338.318 78.7989 338.318 78.8959 338.318 79.0899C338.318 80.9329 337.154 81.9999 335.117 81.9999H331.334C329.297 81.9999 327.939 81.0299 327.648 78.8959L326.193 68.5169V68.7109H313.68L312.225 78.8959C311.934 81.0299 310.576 81.9999 308.539 81.9999H305.532ZM314.941 59.4959H324.932L319.985 25.9339H319.791L314.941 59.4959Z" fill="black"/>
<path d="M347.181 81.9999C345.047 81.9999 343.786 80.7389 343.786 78.6049V17.4949C343.786 15.3609 345.047 14.0999 347.181 14.0999H360.082C370.752 14.0999 375.99 20.0169 375.99 30.8809V65.2189C375.99 76.0829 370.752 81.9999 360.082 81.9999H347.181ZM354.456 72.2999H359.888C363.283 72.2999 365.32 70.5539 365.32 65.7039V30.3959C365.32 25.5459 363.283 23.7999 359.888 23.7999H354.456V72.2999Z" fill="black"/>
<path d="M386.587 81.9999C384.453 81.9999 383.192 80.7389 383.192 78.6049V17.4949C383.192 15.3609 384.453 14.0999 386.587 14.0999H408.897C411.031 14.0999 412.292 15.3609 412.292 17.4949V20.4049C412.292 22.5389 411.031 23.7999 408.897 23.7999H393.862V41.7449H405.114C407.248 41.7449 408.509 43.0059 408.509 45.1399V48.0499C408.509 50.1839 407.248 51.4449 405.114 51.4449H393.862V72.2999H408.897C411.031 72.2999 412.292 73.5609 412.292 75.6949V78.6049C412.292 80.7389 411.031 81.9999 408.897 81.9999H386.587Z" fill="black"/>
<path d="M421.825 81.9999C419.691 81.9999 418.43 80.7389 418.43 78.6049V17.4949C418.43 15.3609 419.691 14.0999 421.825 14.0999H430.458C432.495 14.0999 433.853 15.0699 434.144 17.2039L440.449 62.6969H440.643L446.948 17.2039C447.239 15.0699 448.597 14.0999 450.634 14.0999H459.267C461.401 14.0999 462.662 15.3609 462.662 17.4949V78.6049C462.662 80.7389 461.401 81.9999 459.267 81.9999H455.969C453.835 81.9999 452.574 80.7389 452.574 78.6049V30.5899H452.38L445.105 78.8959C444.814 81.0299 443.456 81.9999 441.419 81.9999H438.897C436.86 81.9999 435.502 81.0299 435.211 78.8959L427.936 30.5899H427.742V78.6049C427.742 80.7389 426.481 81.9999 424.347 81.9999H421.825Z" fill="black"/>
<path d="M483.816 81.9999C481.682 81.9999 480.422 80.7389 480.422 78.6049V53.0939L468.588 17.9799C468.394 17.3979 468.394 17.0099 468.394 16.6219C468.394 14.9729 469.461 14.0999 471.401 14.0999H475.669C477.706 14.0999 478.967 14.8759 479.549 16.9129L486.145 39.0289H486.339L492.935 16.9129C493.517 14.8759 494.778 14.0999 496.815 14.0999H500.113C502.053 14.0999 503.12 14.9729 503.12 16.6219C503.12 17.0099 503.12 17.3979 502.926 17.9799L491.092 53.0939V78.6049C491.092 80.7389 489.831 81.9999 487.697 81.9999H483.816Z" fill="black"/>
<defs>
<radialGradient id="paint0_radial_3079_29420" cx="0" cy="0" r="1" gradientTransform="matrix(4.32901 58.3566 -24.4721 1.75876 179.965 12.2271)" gradientUnits="userSpaceOnUse">
<stop stop-color="#FF9900"/>
<stop offset="1" stop-color="#FF5C00"/>
</radialGradient>
<radialGradient id="paint1_radial_3079_29420" cx="0" cy="0" r="1" gradientTransform="matrix(4.32901 58.3566 -24.4721 1.75876 179.965 12.2271)" gradientUnits="userSpaceOnUse">
<stop stop-color="#FF9900"/>
<stop offset="1" stop-color="#FF5C00"/>
</radialGradient>
<radialGradient id="paint2_radial_3079_29420" cx="0" cy="0" r="1" gradientTransform="matrix(4.32901 58.3566 -24.4721 1.75876 179.965 12.2271)" gradientUnits="userSpaceOnUse">
<stop stop-color="#FF9900"/>
<stop offset="1" stop-color="#FF5C00"/>
</radialGradient>
<clipPath id="clip0_3079_29420">
<rect width="39" height="93" fill="white" transform="translate(169)"/>
</clipPath>
</defs>
</svg>
